G04 Layer: TopSolderMaskLayer*
G04 EasyEDA v6.2.34, 2019-08-10T09:13:35--4:00*
G04 cec1feb412d9436ebb02216d70db0232,603e5982b1a64880906022400fb7a34d,10*
G04 Gerber Generator version 0.2*
G04 Scale: 100 percent, Rotated: No, Reflected: No *
G04 Dimensions in millimeters *
G04 leading zeros omitted , absolute positions ,3 integer and 3 decimal *
%FSLAX33Y33*%
%MOMM*%
G90*
G71D02*

%ADD30C,1.203198*%
%ADD31R,1.727200X1.727200*%
%ADD32C,1.727200*%
%ADD33C,2.003196*%
%ADD35C,2.082800*%
%ADD36C,1.397000*%
%ADD37C,1.603248*%

%LPD*%
G54D30*
G01X19177Y106377D02*
G01X19177Y105377D01*
G01X21463Y106402D02*
G01X21463Y105402D01*
G01X23723Y106377D02*
G01X23723Y105377D01*
G01X68707Y108917D02*
G01X68707Y107917D01*
G01X70993Y108942D02*
G01X70993Y107942D01*
G01X73253Y108917D02*
G01X73253Y107917D01*
G54D31*
G01X57706Y113697D03*
G54D32*
G01X57706Y104698D03*
G54D31*
G01X41706Y113697D03*
G54D32*
G01X41706Y104698D03*
G01X13335Y50911D03*
G01X15872Y50909D03*
G01X18412Y50909D03*
G01X20952Y50909D03*
G01X23492Y50909D03*
G01X26032Y50909D03*
G01X28572Y50909D03*
G01X31112Y50909D03*
G01X33652Y50909D03*
G01X36192Y50909D03*
G01X38732Y50909D03*
G01X41272Y50909D03*
G01X43812Y50909D03*
G01X46352Y50909D03*
G01X48892Y50909D03*
G01X48892Y28049D03*
G01X46352Y28049D03*
G01X43812Y28049D03*
G01X41272Y28049D03*
G01X38732Y28049D03*
G01X36192Y28049D03*
G01X33652Y28049D03*
G01X31112Y28049D03*
G01X28572Y28049D03*
G01X26032Y28049D03*
G01X23492Y28049D03*
G01X20952Y28049D03*
G01X18412Y28049D03*
G01X15872Y28049D03*
G01X13332Y28049D03*
G54D31*
G01X17272Y82915D03*
G54D32*
G01X19812Y82915D03*
G54D31*
G01X62992Y75295D03*
G54D32*
G01X57912Y75295D03*
G54D31*
G01X62992Y87995D03*
G54D32*
G01X57912Y87995D03*
G54D33*
G01X20979Y98000D03*
G01X23519Y98000D03*
G01X26059Y98000D03*
G01X28599Y98000D03*
G01X31139Y98000D03*
G01X33679Y98000D03*
G01X36219Y98000D03*
G01X38759Y98000D03*
G01X41299Y98000D03*
G01X43839Y98000D03*
G01X46379Y98000D03*
G01X48919Y98000D03*
G01X51459Y98000D03*
G36*
G01X52999Y96997D02*
G01X52999Y99001D01*
G01X55001Y99001D01*
G01X55001Y96997D01*
G01X52999Y96997D01*
G37*
G01X33679Y16720D03*
G01X36219Y16720D03*
G01X38759Y16720D03*
G36*
G01X40299Y15717D02*
G01X40299Y17721D01*
G01X42301Y17721D01*
G01X42301Y15717D01*
G01X40299Y15717D01*
G37*
G54D31*
G01X27940Y115935D03*
G54D32*
G01X33020Y115935D03*
G54D35*
G01X8890Y106029D03*
G01X8890Y113649D03*
G01X12700Y106029D03*
G01X12700Y113649D03*
G01X62992Y30083D03*
G01X62992Y37703D03*
G01X59690Y30083D03*
G01X59690Y37703D03*
G54D36*
G01X17780Y112379D03*
G01X20320Y112379D03*
G54D35*
G01X2540Y100949D03*
G01X10160Y100949D03*
G01X2540Y97139D03*
G01X10160Y97139D03*
G01X2540Y93329D03*
G01X10160Y93329D03*
G54D32*
G01X62771Y112633D03*
G01X66768Y112633D03*
G54D37*
G01X68513Y102217D03*
G01X66111Y102217D03*
G54D35*
G01X67310Y89011D03*
G01X67310Y96631D03*
G54D32*
G01X68580Y39529D03*
G01X68580Y36530D03*
G01X68580Y33530D03*
G54D35*
G01X70612Y96631D03*
G01X70612Y89011D03*
M00*
M02*
