G04 Layer: BottomLayer*
G04 EasyEDA v6.2.34, 2019-08-10T09:13:35--4:00*
G04 cec1feb412d9436ebb02216d70db0232,603e5982b1a64880906022400fb7a34d,10*
G04 Gerber Generator version 0.2*
G04 Scale: 100 percent, Rotated: No, Reflected: No *
G04 Dimensions in millimeters *
G04 leading zeros omitted , absolute positions ,3 integer and 3 decimal *
%FSLAX33Y33*%
%MOMM*%
G90*
G71D02*

%ADD11C,0.259994*%
%ADD12C,0.610006*%
%ADD13R,1.524000X1.524000*%
%ADD14C,1.524000*%
%ADD15C,1.799996*%
%ADD17C,1.879600*%
%ADD18C,1.193800*%
%ADD19C,1.400048*%
%ADD20C,0.999998*%
%ADD21R,3.999992X3.999992*%

%LPD*%
G54D11*
G01X41706Y113698D02*
G01X40632Y113698D01*
G01X40632Y113698D02*
G01X36583Y109649D01*
G01X21198Y109649D01*
G01X17861Y106311D01*
G01X62992Y87995D02*
G01X62992Y96713D01*
G01X67177Y100899D01*
G01X67177Y109918D01*
G01X59982Y117112D01*
G01X32575Y117112D01*
G01X29037Y113573D01*
G01X19956Y113573D01*
G01X19050Y112667D01*
G01X19050Y112364D01*
G01X17467Y110779D01*
G01X13639Y110779D01*
G01X8890Y106029D01*
G01X48920Y98001D02*
G01X48920Y76187D01*
G01X23639Y50909D01*
G01X23492Y50909D01*
G01X8277Y93329D02*
G01X18140Y103190D01*
G01X21036Y103190D01*
G01X23723Y105877D01*
G01X2540Y93329D02*
G01X8277Y93329D01*
G01X8277Y93329D02*
G01X16573Y85034D01*
G01X35323Y85034D01*
G01X46108Y74249D01*
G01X19177Y105877D02*
G01X17647Y104348D01*
G01X9748Y104348D01*
G01X2540Y97139D01*
G01X33652Y49702D02*
G01X33652Y45829D01*
G01X15872Y28049D01*
G01X33652Y50909D02*
G01X33652Y49702D01*
G01X57912Y75295D02*
G01X42542Y59926D01*
G01X42542Y50652D01*
G01X41592Y49702D01*
G01X33652Y49702D01*
G01X15872Y28049D02*
G01X4191Y16367D01*
G01X1778Y16367D01*
G01X19177Y105877D02*
G01X20601Y107302D01*
G01X39103Y107302D01*
G01X41706Y104699D01*
G01X66111Y102217D02*
G01X60187Y102217D01*
G01X57706Y104699D01*
G01X67310Y89011D02*
G01X41272Y62974D01*
G01X41272Y50909D01*
G01X46380Y98001D02*
G01X45026Y96644D01*
G01X37574Y96644D01*
G01X36220Y98001D01*
G01X54000Y99225D02*
G01X47604Y99225D01*
G01X46380Y98001D01*
G01X54000Y99225D02*
G01X54000Y97998D01*
G01X62771Y112633D02*
G01X54000Y103863D01*
G01X54000Y99225D01*
G01X10160Y93329D02*
G01X13086Y96256D01*
G01X34477Y96256D01*
G01X36220Y98001D01*
G01X38760Y98001D02*
G01X37477Y99281D01*
G01X32420Y99281D01*
G01X31140Y98001D01*
G01X26060Y98001D02*
G01X27785Y99723D01*
G01X39575Y99723D01*
G01X41300Y98001D01*
G01X59690Y37703D02*
G01X58547Y37703D01*
G01X48892Y28049D01*
G01X12700Y113649D02*
G01X14986Y115935D01*
G01X26865Y115935D01*
G01X27940Y115935D02*
G01X26865Y115935D01*
G01X20320Y112379D02*
G01X16342Y108402D01*
G01X13096Y108402D01*
G01X5643Y100949D01*
G01X2540Y100949D01*
G01X33020Y115935D02*
G01X29464Y112379D01*
G01X20320Y112379D01*
G01X21463Y105902D02*
G01X19281Y103721D01*
G01X12931Y103721D01*
G01X10160Y100949D01*
G01X68580Y36530D02*
G01X72898Y32212D01*
G01X72898Y16367D01*
G01X68580Y39530D02*
G01X62992Y33942D01*
G01X62992Y30083D01*
G01X48892Y50909D02*
G01X68961Y70977D01*
G01X68961Y94980D01*
G01X70612Y96631D01*
G01X73253Y108417D02*
G01X69037Y112633D01*
G01X66768Y112633D01*
G54D21*
G01X72898Y16367D03*
G01X1778Y16367D03*
G54D13*
G01X57706Y113697D03*
G54D14*
G01X57706Y104698D03*
G54D13*
G01X41706Y113697D03*
G54D14*
G01X41706Y104698D03*
G01X13335Y50911D03*
G01X15872Y50909D03*
G01X18412Y50909D03*
G01X20952Y50909D03*
G01X23492Y50909D03*
G01X26032Y50909D03*
G01X28572Y50909D03*
G01X31112Y50909D03*
G01X33652Y50909D03*
G01X36192Y50909D03*
G01X38732Y50909D03*
G01X41272Y50909D03*
G01X43812Y50909D03*
G01X46352Y50909D03*
G01X48892Y50909D03*
G01X48892Y28049D03*
G01X46352Y28049D03*
G01X43812Y28049D03*
G01X41272Y28049D03*
G01X38732Y28049D03*
G01X36192Y28049D03*
G01X33652Y28049D03*
G01X31112Y28049D03*
G01X28572Y28049D03*
G01X26032Y28049D03*
G01X23492Y28049D03*
G01X20952Y28049D03*
G01X18412Y28049D03*
G01X15872Y28049D03*
G01X13332Y28049D03*
G54D13*
G01X17272Y82915D03*
G54D14*
G01X19812Y82915D03*
G54D13*
G01X62992Y75295D03*
G54D14*
G01X57912Y75295D03*
G54D13*
G01X62992Y87995D03*
G54D14*
G01X57912Y87995D03*
G54D15*
G01X20979Y98000D03*
G01X23519Y98000D03*
G01X26059Y98000D03*
G01X28599Y98000D03*
G01X31139Y98000D03*
G01X33679Y98000D03*
G01X36219Y98000D03*
G01X38759Y98000D03*
G01X41299Y98000D03*
G01X43839Y98000D03*
G01X46379Y98000D03*
G01X48919Y98000D03*
G01X51459Y98000D03*
G36*
G01X54899Y97099D02*
G01X53099Y97099D01*
G01X53099Y98899D01*
G01X54899Y98899D01*
G01X54899Y97099D01*
G37*
G01X33679Y16720D03*
G01X36219Y16720D03*
G01X38759Y16720D03*
G36*
G01X42199Y15819D02*
G01X40399Y15819D01*
G01X40399Y17619D01*
G01X42199Y17619D01*
G01X42199Y15819D01*
G37*
G54D13*
G01X27940Y115935D03*
G54D14*
G01X33020Y115935D03*
G54D17*
G01X8890Y106029D03*
G01X8890Y113649D03*
G01X12700Y106029D03*
G01X12700Y113649D03*
G01X62992Y30083D03*
G01X62992Y37703D03*
G01X59690Y30083D03*
G01X59690Y37703D03*
G54D18*
G01X17780Y112379D03*
G01X20320Y112379D03*
G54D17*
G01X2540Y100949D03*
G01X10160Y100949D03*
G01X2540Y97139D03*
G01X10160Y97139D03*
G01X2540Y93329D03*
G01X10160Y93329D03*
G54D14*
G01X62771Y112633D03*
G01X66768Y112633D03*
G54D19*
G01X68513Y102217D03*
G01X66111Y102217D03*
G54D17*
G01X67310Y89011D03*
G01X67310Y96631D03*
G54D14*
G01X68580Y39529D03*
G01X68580Y36530D03*
G01X68580Y33530D03*
G54D17*
G01X70612Y96631D03*
G01X70612Y89011D03*
G54D12*
G01X17861Y106311D03*
G01X46108Y74249D03*
G54D20*
G01X19177Y106377D02*
G01X19177Y105377D01*
G01X21463Y106402D02*
G01X21463Y105402D01*
G01X23723Y106377D02*
G01X23723Y105377D01*
G01X68707Y108917D02*
G01X68707Y107917D01*
G01X70993Y108942D02*
G01X70993Y107942D01*
G01X73253Y108917D02*
G01X73253Y107917D01*
M00*
M02*
