;Layer: Drill PTH
;EasyEDA v6.2.34, 2019-08-10T09:13:35--4:00
;cec1feb412d9436ebb02216d70db0232,603e5982b1a64880906022400fb7a34d,10
;Gerber Generator version 0.2
M48
METRIC,LZ,000.000
;Holesize 1 = 0.310 METRIC
T01C0.310
;Holesize 2 = 0.600 METRIC
T02C0.600
;Holesize 3 = 0.701 METRIC
T03C0.701
;Holesize 4 = 0.712 METRIC
T04C0.712
;Holesize 5 = 0.800 METRIC
T05C0.800
;Holesize 6 = 0.900 METRIC
T06C0.900
;Holesize 7 = 0.915 METRIC
T07C0.915
%
G05
G90
T01
X+017861Y+106311
X+046108Y+074249
T02
X+062771Y+112633
X+066768Y+112633
T03
X+019177Y+105877
X+021463Y+105902
X+023723Y+105877
X+068707Y+108417
X+070993Y+108442
X+073253Y+108417
T04
X+017780Y+112379
X+020320Y+112379
T05
X+020979Y+097999
X+023519Y+097999
X+026059Y+097999
X+028599Y+097999
X+031139Y+097999
X+033679Y+097999
X+036219Y+097999
X+038759Y+097999
X+041299Y+097999
X+043839Y+097999
X+046379Y+097999
X+048919Y+097999
X+051459Y+097999
X+053999Y+097999
X+033679Y+016719
X+036219Y+016719
X+038759Y+016719
X+041299Y+016719
X+068513Y+102217
X+066111Y+102217
T06
X+008890Y+106029
X+008890Y+113649
X+012700Y+106029
X+012700Y+113649
X+062992Y+030083
X+062992Y+037703
X+059690Y+030083
X+059690Y+037703
X+002540Y+100949
X+010160Y+100949
X+002540Y+097139
X+010160Y+097139
X+002540Y+093329
X+010160Y+093329
X+067310Y+089011
X+067310Y+096631
X+070612Y+096631
X+070612Y+089011
T07
X+057706Y+113697
X+057706Y+104697
X+041705Y+113697
X+041705Y+104697
X+013335Y+050911
X+015872Y+050909
X+018412Y+050909
X+020952Y+050909
X+023492Y+050909
X+026032Y+050909
X+028572Y+050909
X+031112Y+050909
X+033652Y+050909
X+036192Y+050909
X+038732Y+050909
X+041272Y+050909
X+043812Y+050909
X+046352Y+050909
X+048892Y+050909
X+048892Y+028049
X+046352Y+028049
X+043812Y+028049
X+041272Y+028049
X+038732Y+028049
X+036192Y+028049
X+033652Y+028049
X+031112Y+028049
X+028572Y+028049
X+026032Y+028049
X+023492Y+028049
X+020952Y+028049
X+018412Y+028049
X+015872Y+028049
X+013332Y+028049
X+017272Y+082915
X+019812Y+082915
X+062992Y+075295
X+057912Y+075295
X+062992Y+087995
X+057912Y+087995
X+027940Y+115935
X+033020Y+115935
X+068580Y+039529
X+068580Y+036530
X+068580Y+033529
M30
