G04 Layer: TopSilkLayer*
G04 EasyEDA v6.2.34, 2019-08-10T09:13:35--4:00*
G04 cec1feb412d9436ebb02216d70db0232,603e5982b1a64880906022400fb7a34d,10*
G04 Gerber Generator version 0.2*
G04 Scale: 100 percent, Rotated: No, Reflected: No *
G04 Dimensions in millimeters *
G04 leading zeros omitted , absolute positions ,3 integer and 3 decimal *
%FSLAX33Y33*%
%MOMM*%
G90*
G71D02*

%ADD10C,0.254000*%
%ADD22C,0.200660*%
%ADD23C,0.152400*%
%ADD24C,0.203200*%
%ADD25C,0.202997*%

%LPD*%
G54D22*
G01X53364Y96729D02*
G01X19709Y96729D01*
G01X55269Y96729D02*
G01X53364Y96729D01*
G01X55269Y99269D02*
G01X55269Y96729D01*
G01X55269Y99269D02*
G01X19709Y99269D01*
G01X19709Y99269D02*
G01X19709Y96729D01*
G01X42569Y17989D02*
G01X42569Y15449D01*
G01X42569Y15449D02*
G01X32409Y15449D01*
G01X42569Y17989D02*
G01X32409Y17989D01*
G01X32409Y17989D02*
G01X32409Y15449D01*
G54D10*
G01X61619Y100539D02*
G01X61619Y14179D01*
G01X13359Y14179D01*
G01X13359Y100539D01*
G01X61619Y100539D01*
G01X25400Y118475D02*
G01X35560Y118475D01*
G01X35560Y113395D01*
G01X25400Y113395D01*
G01X25400Y118475D01*
G01X8128Y107299D02*
G01X8128Y112379D01*
G01X8128Y112379D02*
G01X8890Y112379D01*
G01X8890Y112379D02*
G01X9652Y112379D01*
G01X9652Y112379D02*
G01X9652Y107299D01*
G01X9652Y107299D02*
G01X8890Y107299D01*
G01X8890Y107299D02*
G01X8128Y107299D01*
G01X8890Y112379D02*
G01X8890Y112633D01*
G01X8890Y107299D02*
G01X8890Y107045D01*
G01X11938Y107299D02*
G01X11938Y112379D01*
G01X11938Y112379D02*
G01X12700Y112379D01*
G01X12700Y112379D02*
G01X13462Y112379D01*
G01X13462Y112379D02*
G01X13462Y107299D01*
G01X13462Y107299D02*
G01X12700Y107299D01*
G01X12700Y107299D02*
G01X11938Y107299D01*
G01X12700Y112379D02*
G01X12700Y112633D01*
G01X12700Y107299D02*
G01X12700Y107045D01*
G01X62230Y31353D02*
G01X62230Y36433D01*
G01X62230Y36433D02*
G01X62992Y36433D01*
G01X62992Y36433D02*
G01X63754Y36433D01*
G01X63754Y36433D02*
G01X63754Y31353D01*
G01X63754Y31353D02*
G01X62992Y31353D01*
G01X62992Y31353D02*
G01X62230Y31353D01*
G01X62992Y36433D02*
G01X62992Y36687D01*
G01X62992Y31353D02*
G01X62992Y31099D01*
G01X58928Y31353D02*
G01X58928Y36433D01*
G01X58928Y36433D02*
G01X59690Y36433D01*
G01X59690Y36433D02*
G01X60452Y36433D01*
G01X60452Y36433D02*
G01X60452Y31353D01*
G01X60452Y31353D02*
G01X59690Y31353D01*
G01X59690Y31353D02*
G01X58928Y31353D01*
G01X59690Y36433D02*
G01X59690Y36687D01*
G01X59690Y31353D02*
G01X59690Y31099D01*
G54D22*
G01X21587Y113647D02*
G01X16507Y113647D01*
G01X16507Y111107D01*
G01X21587Y111107D01*
G01X21587Y113647D01*
G54D10*
G01X3810Y101711D02*
G01X8890Y101711D01*
G01X8890Y101711D02*
G01X8890Y100949D01*
G01X8890Y100949D02*
G01X8890Y100187D01*
G01X8890Y100187D02*
G01X3810Y100187D01*
G01X3810Y100187D02*
G01X3810Y100949D01*
G01X3810Y100949D02*
G01X3810Y101711D01*
G01X8890Y100949D02*
G01X9144Y100949D01*
G01X3810Y100949D02*
G01X3556Y100949D01*
G01X3810Y97901D02*
G01X8890Y97901D01*
G01X8890Y97901D02*
G01X8890Y97139D01*
G01X8890Y97139D02*
G01X8890Y96377D01*
G01X8890Y96377D02*
G01X3810Y96377D01*
G01X3810Y96377D02*
G01X3810Y97139D01*
G01X3810Y97139D02*
G01X3810Y97901D01*
G01X8890Y97139D02*
G01X9144Y97139D01*
G01X3810Y97139D02*
G01X3556Y97139D01*
G01X23442Y104403D02*
G01X19483Y104403D01*
G01X3810Y94091D02*
G01X8890Y94091D01*
G01X8890Y94091D02*
G01X8890Y93329D01*
G01X8890Y93329D02*
G01X8890Y92567D01*
G01X8890Y92567D02*
G01X3810Y92567D01*
G01X3810Y92567D02*
G01X3810Y93329D01*
G01X3810Y93329D02*
G01X3810Y94091D01*
G01X8890Y93329D02*
G01X9144Y93329D01*
G01X3810Y93329D02*
G01X3556Y93329D01*
G01X63770Y113553D02*
G01X65769Y113553D01*
G01X63770Y111704D02*
G01X65769Y111704D01*
G01X65769Y113553D02*
G01X65769Y111704D01*
G01X63770Y113553D02*
G01X63770Y111704D01*
G01X66167Y90281D02*
G01X66167Y95361D01*
G01X66167Y95361D02*
G01X67310Y95361D01*
G01X67310Y95361D02*
G01X68453Y95361D01*
G01X68453Y95361D02*
G01X68453Y90281D01*
G01X68453Y90281D02*
G01X67310Y90281D01*
G01X67310Y90281D02*
G01X66167Y90281D01*
G01X67310Y95361D02*
G01X67310Y95615D01*
G01X67310Y90281D02*
G01X67310Y90027D01*
G01X66580Y44529D02*
G01X70579Y44529D01*
G01X70579Y28530D01*
G01X66580Y28530D01*
G01X66580Y44529D01*
G01X72972Y106943D02*
G01X69013Y106943D01*
G01X71374Y95361D02*
G01X71374Y90281D01*
G01X71374Y90281D02*
G01X70612Y90281D01*
G01X70612Y90281D02*
G01X69850Y90281D01*
G01X69850Y90281D02*
G01X69850Y95361D01*
G01X69850Y95361D02*
G01X70612Y95361D01*
G01X70612Y95361D02*
G01X71374Y95361D01*
G01X70612Y90281D02*
G01X70612Y90027D01*
G01X70612Y95361D02*
G01X70612Y95615D01*
G54D23*
G01X61719Y57359D02*
G01X62496Y57359D01*
G01X62653Y57410D01*
G01X62757Y57514D01*
G01X62808Y57672D01*
G01X62808Y57776D01*
G01X62757Y57931D01*
G01X62653Y58035D01*
G01X62496Y58086D01*
G01X61719Y58086D01*
G01X61978Y58482D02*
G01X61924Y58482D01*
G01X61820Y58533D01*
G01X61769Y58586D01*
G01X61719Y58690D01*
G01X61719Y58896D01*
G01X61769Y59000D01*
G01X61820Y59054D01*
G01X61924Y59104D01*
G01X62028Y59104D01*
G01X62133Y59054D01*
G01X62290Y58950D01*
G01X62808Y58429D01*
G01X62808Y59158D01*
G54D24*
G01X56539Y98109D02*
G01X56631Y98154D01*
G01X56766Y98292D01*
G01X56766Y97337D01*
G01X54253Y96221D02*
G01X53298Y95859D01*
G01X54253Y95496D02*
G01X53298Y95859D01*
G01X53799Y94650D02*
G01X53891Y94742D01*
G01X53932Y94830D01*
G01X53934Y94968D01*
G01X53891Y95058D01*
G01X53799Y95149D01*
G01X53663Y95196D01*
G01X53569Y95196D01*
G01X53436Y95149D01*
G01X53345Y95058D01*
G01X53298Y94968D01*
G01X53300Y94830D01*
G01X53345Y94742D01*
G01X53436Y94650D01*
G01X53799Y93802D02*
G01X53891Y93894D01*
G01X53934Y93987D01*
G01X53934Y94120D01*
G01X53891Y94213D01*
G01X53799Y94305D01*
G01X53661Y94350D01*
G01X53571Y94350D01*
G01X53434Y94303D01*
G01X53345Y94213D01*
G01X53298Y94120D01*
G01X53298Y93987D01*
G01X53345Y93894D01*
G01X53436Y93802D01*
G01X51739Y95541D02*
G01X51829Y95584D01*
G01X51921Y95675D01*
G01X51967Y95765D01*
G01X51967Y95948D01*
G01X51921Y96038D01*
G01X51829Y96130D01*
G01X51739Y96177D01*
G01X51605Y96221D01*
G01X51375Y96221D01*
G01X51238Y96175D01*
G01X51150Y96130D01*
G01X51059Y96038D01*
G01X51012Y95948D01*
G01X51014Y95767D01*
G01X51059Y95675D01*
G01X51150Y95584D01*
G01X51240Y95541D01*
G01X51377Y95541D01*
G01X51377Y95767D02*
G01X51377Y95541D01*
G01X51648Y95237D02*
G01X51014Y95239D01*
G01X51466Y95239D02*
G01X51605Y95104D01*
G01X51648Y95011D01*
G01X51648Y94874D01*
G01X51603Y94786D01*
G01X51466Y94740D01*
G01X51012Y94742D01*
G01X51967Y93894D02*
G01X51012Y93894D01*
G01X51513Y93896D02*
G01X51605Y93987D01*
G01X51646Y94075D01*
G01X51648Y94213D01*
G01X51605Y94303D01*
G01X51513Y94395D01*
G01X51377Y94438D01*
G01X51283Y94438D01*
G01X51150Y94395D01*
G01X51059Y94303D01*
G01X51012Y94213D01*
G01X51014Y94075D01*
G01X51059Y93987D01*
G01X51150Y93896D01*
G01X49198Y95541D02*
G01X49287Y95584D01*
G01X49379Y95675D01*
G01X49426Y95765D01*
G01X49426Y95948D01*
G01X49379Y96038D01*
G01X49287Y96130D01*
G01X49198Y96177D01*
G01X49063Y96221D01*
G01X48833Y96221D01*
G01X48696Y96175D01*
G01X48608Y96130D01*
G01X48517Y96038D01*
G01X48470Y95948D01*
G01X48472Y95767D01*
G01X48517Y95675D01*
G01X48608Y95584D01*
G01X48698Y95541D01*
G01X49287Y94603D02*
G01X49379Y94695D01*
G01X49427Y94830D01*
G01X49426Y95011D01*
G01X49381Y95149D01*
G01X49287Y95239D01*
G01X49198Y95239D01*
G01X49106Y95194D01*
G01X49063Y95151D01*
G01X49016Y95058D01*
G01X48925Y94786D01*
G01X48880Y94695D01*
G01X48835Y94650D01*
G01X48741Y94603D01*
G01X48608Y94603D01*
G01X48517Y94695D01*
G01X48472Y94830D01*
G01X48472Y95013D01*
G01X48515Y95149D01*
G01X48608Y95239D01*
G01X46886Y96221D02*
G01X45930Y96221D01*
G01X46886Y96221D02*
G01X46886Y95812D01*
G01X46839Y95675D01*
G01X46794Y95631D01*
G01X46704Y95584D01*
G01X46611Y95584D01*
G01X46523Y95629D01*
G01X46476Y95675D01*
G01X46431Y95814D01*
G01X46429Y96221D01*
G01X46431Y95904D02*
G01X45932Y95584D01*
G01X46886Y95284D02*
G01X45930Y95284D01*
G01X46886Y95284D02*
G01X46886Y94695D01*
G01X46431Y95286D02*
G01X46429Y94921D01*
G01X45930Y95284D02*
G01X45930Y94695D01*
G01X46749Y93757D02*
G01X46841Y93849D01*
G01X46886Y93987D01*
G01X46886Y94167D01*
G01X46839Y94303D01*
G01X46747Y94395D01*
G01X46658Y94395D01*
G01X46566Y94350D01*
G01X46523Y94303D01*
G01X46478Y94212D01*
G01X46386Y93940D01*
G01X46340Y93851D01*
G01X46293Y93804D01*
G01X46203Y93757D01*
G01X46067Y93757D01*
G01X45975Y93849D01*
G01X45930Y93987D01*
G01X45930Y94167D01*
G01X45977Y94303D01*
G01X46068Y94395D01*
G01X46886Y93459D02*
G01X45930Y93459D01*
G01X46886Y93459D02*
G01X46886Y92866D01*
G01X46431Y93457D02*
G01X46431Y93095D01*
G01X45930Y93459D02*
G01X45930Y92866D01*
G01X46886Y92249D02*
G01X45930Y92249D01*
G01X46887Y92567D02*
G01X46886Y91933D01*
G01X44420Y96221D02*
G01X43465Y96221D01*
G01X44420Y96221D02*
G01X44420Y95905D01*
G01X44375Y95767D01*
G01X44284Y95675D01*
G01X44192Y95631D01*
G01X44055Y95584D01*
G01X43829Y95584D01*
G01X43691Y95629D01*
G01X43601Y95675D01*
G01X43509Y95767D01*
G01X43466Y95904D01*
G01X43465Y96221D01*
G01X44601Y94467D02*
G01X43148Y95284D01*
G01X44192Y93486D02*
G01X44284Y93531D01*
G01X44373Y93621D01*
G01X44420Y93711D01*
G01X44420Y93894D01*
G01X44375Y93985D01*
G01X44282Y94075D01*
G01X44192Y94122D01*
G01X44057Y94167D01*
G01X43827Y94167D01*
G01X43691Y94120D01*
G01X43603Y94075D01*
G01X43511Y93987D01*
G01X43465Y93894D01*
G01X43466Y93712D01*
G01X43511Y93621D01*
G01X43603Y93533D01*
G01X43693Y93486D01*
G01X41807Y96221D02*
G01X40852Y96221D01*
G01X41807Y96221D02*
G01X40852Y95859D01*
G01X41807Y95496D02*
G01X40852Y95859D01*
G01X41807Y95496D02*
G01X40852Y95496D01*
G01X41807Y94921D02*
G01X41763Y95013D01*
G01X41671Y95104D01*
G01X41579Y95149D01*
G01X41445Y95194D01*
G01X41217Y95196D01*
G01X41078Y95151D01*
G01X40988Y95104D01*
G01X40897Y95013D01*
G01X40852Y94921D01*
G01X40852Y94742D01*
G01X40899Y94648D01*
G01X40988Y94558D01*
G01X41078Y94512D01*
G01X41217Y94467D01*
G01X41445Y94465D01*
G01X41579Y94513D01*
G01X41671Y94558D01*
G01X41763Y94650D01*
G01X41807Y94742D01*
G01X41807Y94921D01*
G01X41671Y93531D02*
G01X41761Y93621D01*
G01X41807Y93757D01*
G01X41807Y93940D01*
G01X41763Y94075D01*
G01X41671Y94167D01*
G01X41578Y94167D01*
G01X41488Y94120D01*
G01X41443Y94075D01*
G01X41398Y93987D01*
G01X41306Y93712D01*
G01X41261Y93621D01*
G01X41215Y93574D01*
G01X41125Y93531D01*
G01X40990Y93533D01*
G01X40899Y93621D01*
G01X40852Y93757D01*
G01X40852Y93940D01*
G01X40897Y94075D01*
G01X40988Y94167D01*
G01X41807Y93229D02*
G01X40852Y93229D01*
G01X39127Y95584D02*
G01X39219Y95675D01*
G01X39266Y95812D01*
G01X39266Y95995D01*
G01X39221Y96130D01*
G01X39129Y96221D01*
G01X39036Y96221D01*
G01X38946Y96175D01*
G01X38901Y96130D01*
G01X38856Y96038D01*
G01X38765Y95767D01*
G01X38720Y95675D01*
G01X38675Y95631D01*
G01X38581Y95584D01*
G01X38448Y95584D01*
G01X38357Y95675D01*
G01X38310Y95812D01*
G01X38310Y95995D01*
G01X38355Y96130D01*
G01X38447Y96221D01*
G01X39038Y94603D02*
G01X39129Y94648D01*
G01X39221Y94740D01*
G01X39267Y94830D01*
G01X39266Y95011D01*
G01X39219Y95104D01*
G01X39129Y95194D01*
G01X39038Y95239D01*
G01X38903Y95284D01*
G01X38673Y95284D01*
G01X38536Y95237D01*
G01X38448Y95196D01*
G01X38357Y95104D01*
G01X38312Y95013D01*
G01X38312Y94830D01*
G01X38357Y94742D01*
G01X38448Y94650D01*
G01X38538Y94603D01*
G01X39266Y94303D02*
G01X38310Y94303D01*
G01X39266Y93667D02*
G01X38628Y94305D01*
G01X38858Y94075D02*
G01X38312Y93666D01*
G01X36726Y96221D02*
G01X35770Y96221D01*
G01X35770Y96221D02*
G01X35770Y95675D01*
G01X36726Y95377D02*
G01X35772Y95376D01*
G01X36726Y95377D02*
G01X36727Y94786D01*
G01X36271Y95376D02*
G01X36271Y95013D01*
G01X35772Y95376D02*
G01X35772Y94786D01*
G01X36726Y94483D02*
G01X35770Y94483D01*
G01X36726Y94483D02*
G01X36726Y94167D01*
G01X36681Y94028D01*
G01X36589Y93940D01*
G01X36498Y93896D01*
G01X36361Y93849D01*
G01X36135Y93849D01*
G01X35996Y93894D01*
G01X35907Y93940D01*
G01X35817Y94030D01*
G01X35770Y94167D01*
G01X35770Y94483D01*
G01X34187Y96221D02*
G01X33232Y96221D01*
G01X34187Y96221D02*
G01X33232Y95859D01*
G01X34187Y95496D02*
G01X33232Y95859D01*
G01X34187Y95496D02*
G01X33232Y95496D01*
G01X34187Y95194D02*
G01X33232Y95194D01*
G01X34049Y94258D02*
G01X34141Y94350D01*
G01X34187Y94483D01*
G01X34187Y94666D01*
G01X34143Y94804D01*
G01X34051Y94892D01*
G01X33959Y94894D01*
G01X33868Y94849D01*
G01X33823Y94804D01*
G01X33778Y94713D01*
G01X33686Y94438D01*
G01X33641Y94350D01*
G01X33595Y94303D01*
G01X33503Y94258D01*
G01X33370Y94258D01*
G01X33279Y94350D01*
G01X33232Y94483D01*
G01X33232Y94666D01*
G01X33277Y94804D01*
G01X33370Y94894D01*
G01X34187Y93685D02*
G01X34141Y93775D01*
G01X34049Y93867D01*
G01X33959Y93914D01*
G01X33825Y93958D01*
G01X33595Y93958D01*
G01X33458Y93912D01*
G01X33370Y93867D01*
G01X33279Y93775D01*
G01X33234Y93684D01*
G01X33234Y93504D01*
G01X33279Y93412D01*
G01X33370Y93321D01*
G01X33458Y93276D01*
G01X33595Y93229D01*
G01X33825Y93229D01*
G01X33959Y93274D01*
G01X34049Y93321D01*
G01X34141Y93412D01*
G01X34187Y93502D01*
G01X34187Y93685D01*
G01X31646Y96159D02*
G01X30692Y96158D01*
G01X31646Y96475D02*
G01X31647Y95838D01*
G01X30374Y95538D02*
G01X30372Y94721D01*
G01X31418Y93740D02*
G01X31509Y93785D01*
G01X31599Y93875D01*
G01X31646Y93965D01*
G01X31646Y94148D01*
G01X31601Y94239D01*
G01X31507Y94329D01*
G01X31418Y94376D01*
G01X31283Y94421D01*
G01X31053Y94421D01*
G01X30916Y94374D01*
G01X30828Y94329D01*
G01X30737Y94241D01*
G01X30690Y94148D01*
G01X30692Y93966D01*
G01X30737Y93875D01*
G01X30828Y93787D01*
G01X30918Y93740D01*
G01X31646Y93440D02*
G01X30690Y93440D01*
G01X30690Y93440D02*
G01X30690Y92894D01*
G01X31646Y92596D02*
G01X30692Y92594D01*
G01X31646Y91957D02*
G01X31008Y92594D01*
G01X31236Y92366D02*
G01X30690Y91957D01*
G01X29106Y96159D02*
G01X28152Y96158D01*
G01X29106Y96475D02*
G01X29107Y95838D01*
G01X27834Y95538D02*
G01X27832Y94721D01*
G01X28878Y93740D02*
G01X28969Y93785D01*
G01X29059Y93875D01*
G01X29106Y93965D01*
G01X29106Y94148D01*
G01X29061Y94239D01*
G01X28967Y94329D01*
G01X28878Y94376D01*
G01X28743Y94421D01*
G01X28513Y94421D01*
G01X28376Y94374D01*
G01X28288Y94329D01*
G01X28197Y94241D01*
G01X28150Y94148D01*
G01X28152Y93966D01*
G01X28197Y93875D01*
G01X28288Y93787D01*
G01X28378Y93740D01*
G01X28967Y92803D02*
G01X29059Y92894D01*
G01X29106Y93031D01*
G01X29106Y93210D01*
G01X29061Y93349D01*
G01X28969Y93440D01*
G01X28876Y93440D01*
G01X28786Y93393D01*
G01X28741Y93349D01*
G01X28696Y93257D01*
G01X28605Y92986D01*
G01X28560Y92894D01*
G01X28515Y92849D01*
G01X28421Y92803D01*
G01X28288Y92803D01*
G01X28197Y92894D01*
G01X28150Y93031D01*
G01X28152Y93212D01*
G01X28195Y93349D01*
G01X28287Y93440D01*
G01X26566Y96159D02*
G01X25612Y96158D01*
G01X26566Y96475D02*
G01X26567Y95838D01*
G01X25294Y95538D02*
G01X25292Y94721D01*
G01X26566Y94421D02*
G01X25610Y94421D01*
G01X26566Y94421D02*
G01X26566Y94105D01*
G01X26521Y93966D01*
G01X26429Y93875D01*
G01X26338Y93830D01*
G01X26203Y93785D01*
G01X25973Y93785D01*
G01X25836Y93828D01*
G01X25747Y93875D01*
G01X25657Y93965D01*
G01X25612Y94103D01*
G01X25610Y94421D01*
G01X26566Y93483D02*
G01X25610Y93483D01*
G01X26566Y93185D02*
G01X25612Y93183D01*
G01X26566Y93185D02*
G01X25610Y92549D01*
G01X26566Y92549D02*
G01X25610Y92549D01*
G01X24026Y96159D02*
G01X23072Y96158D01*
G01X24026Y96475D02*
G01X24027Y95838D01*
G01X22754Y95538D02*
G01X22752Y94721D01*
G01X24026Y94421D02*
G01X23070Y94421D01*
G01X24026Y94421D02*
G01X24026Y94105D01*
G01X23981Y93966D01*
G01X23889Y93875D01*
G01X23798Y93830D01*
G01X23663Y93785D01*
G01X23433Y93785D01*
G01X23296Y93828D01*
G01X23207Y93875D01*
G01X23117Y93965D01*
G01X23072Y94103D01*
G01X23070Y94421D01*
G01X24026Y93210D02*
G01X23979Y93304D01*
G01X23889Y93393D01*
G01X23796Y93440D01*
G01X23663Y93483D01*
G01X23433Y93483D01*
G01X23296Y93440D01*
G01X23208Y93395D01*
G01X23117Y93304D01*
G01X23072Y93212D01*
G01X23070Y93031D01*
G01X23117Y92941D01*
G01X23208Y92849D01*
G01X23298Y92803D01*
G01X23433Y92758D01*
G01X23663Y92758D01*
G01X23798Y92803D01*
G01X23889Y92847D01*
G01X23981Y92939D01*
G01X24026Y93031D01*
G01X24026Y93210D01*
G01X21486Y96159D02*
G01X20532Y96158D01*
G01X21486Y96475D02*
G01X21487Y95838D01*
G01X20214Y95538D02*
G01X20212Y94721D01*
G01X21486Y94421D02*
G01X20530Y94421D01*
G01X21487Y94121D02*
G01X20532Y94121D01*
G01X21487Y94121D02*
G01X21486Y93713D01*
G01X21441Y93575D01*
G01X21394Y93528D01*
G01X21302Y93483D01*
G01X21213Y93483D01*
G01X21123Y93530D01*
G01X21078Y93575D01*
G01X21031Y93711D01*
G01X21031Y94121D01*
G01X21031Y93805D02*
G01X20530Y93483D01*
G01X21486Y92912D02*
G01X21441Y93004D01*
G01X21349Y93095D01*
G01X21258Y93137D01*
G01X21123Y93185D01*
G01X20895Y93183D01*
G01X20756Y93138D01*
G01X20667Y93095D01*
G01X20575Y93004D01*
G01X20530Y92912D01*
G01X20530Y92729D01*
G01X20577Y92639D01*
G01X20668Y92548D01*
G01X20756Y92503D01*
G01X20895Y92458D01*
G01X21123Y92456D01*
G01X21256Y92503D01*
G01X21349Y92549D01*
G01X21441Y92641D01*
G01X21486Y92729D01*
G01X21486Y92912D01*
G01X20713Y92776D02*
G01X20440Y92503D01*
G01X34050Y23194D02*
G01X34142Y23285D01*
G01X34187Y23423D01*
G01X34187Y23605D01*
G01X34142Y23740D01*
G01X34050Y23831D01*
G01X33959Y23831D01*
G01X33870Y23786D01*
G01X33824Y23740D01*
G01X33779Y23649D01*
G01X33687Y23377D01*
G01X33641Y23285D01*
G01X33596Y23240D01*
G01X33504Y23194D01*
G01X33370Y23194D01*
G01X33278Y23285D01*
G01X33232Y23423D01*
G01X33232Y23605D01*
G01X33278Y23740D01*
G01X33370Y23831D01*
G01X34187Y22894D02*
G01X33232Y22894D01*
G01X34187Y22894D02*
G01X34187Y22577D01*
G01X34142Y22440D01*
G01X34050Y22351D01*
G01X33959Y22305D01*
G01X33824Y22259D01*
G01X33596Y22259D01*
G01X33459Y22305D01*
G01X33370Y22351D01*
G01X33278Y22440D01*
G01X33232Y22577D01*
G01X33232Y22894D01*
G01X32915Y21960D02*
G01X32915Y21142D01*
G01X33959Y20159D02*
G01X34050Y20204D01*
G01X34142Y20296D01*
G01X34187Y20387D01*
G01X34187Y20568D01*
G01X34142Y20659D01*
G01X34050Y20750D01*
G01X33959Y20796D01*
G01X33824Y20839D01*
G01X33596Y20839D01*
G01X33459Y20796D01*
G01X33370Y20750D01*
G01X33278Y20659D01*
G01X33232Y20568D01*
G01X33232Y20387D01*
G01X33278Y20296D01*
G01X33370Y20204D01*
G01X33459Y20159D01*
G01X34187Y19859D02*
G01X33232Y19859D01*
G01X33232Y19859D02*
G01X33232Y19313D01*
G01X34187Y19013D02*
G01X33232Y19013D01*
G01X34187Y18378D02*
G01X33550Y19013D01*
G01X33779Y18787D02*
G01X33232Y18378D01*
G01X36590Y23702D02*
G01X36682Y23793D01*
G01X36727Y23931D01*
G01X36727Y24113D01*
G01X36682Y24248D01*
G01X36590Y24339D01*
G01X36499Y24339D01*
G01X36410Y24294D01*
G01X36364Y24248D01*
G01X36319Y24157D01*
G01X36227Y23885D01*
G01X36181Y23793D01*
G01X36136Y23748D01*
G01X36044Y23702D01*
G01X35910Y23702D01*
G01X35818Y23793D01*
G01X35772Y23931D01*
G01X35772Y24113D01*
G01X35818Y24248D01*
G01X35910Y24339D01*
G01X36727Y23402D02*
G01X35772Y23402D01*
G01X36727Y23402D02*
G01X36727Y23085D01*
G01X36682Y22948D01*
G01X36590Y22859D01*
G01X36499Y22813D01*
G01X36364Y22767D01*
G01X36136Y22767D01*
G01X35999Y22813D01*
G01X35910Y22859D01*
G01X35818Y22948D01*
G01X35772Y23085D01*
G01X35772Y23402D01*
G01X35455Y22468D02*
G01X35455Y21650D01*
G01X36727Y21347D02*
G01X35772Y21347D01*
G01X36727Y21347D02*
G01X35772Y20984D01*
G01X36727Y20621D02*
G01X35772Y20984D01*
G01X36727Y20621D02*
G01X35772Y20621D01*
G01X36727Y20321D02*
G01X35772Y20321D01*
G01X36590Y19384D02*
G01X36682Y19475D01*
G01X36727Y19613D01*
G01X36727Y19793D01*
G01X36682Y19930D01*
G01X36590Y20021D01*
G01X36499Y20021D01*
G01X36410Y19976D01*
G01X36364Y19930D01*
G01X36319Y19839D01*
G01X36227Y19567D01*
G01X36181Y19475D01*
G01X36136Y19430D01*
G01X36044Y19384D01*
G01X35910Y19384D01*
G01X35818Y19475D01*
G01X35772Y19613D01*
G01X35772Y19793D01*
G01X35818Y19930D01*
G01X35910Y20021D01*
G01X36727Y18812D02*
G01X36682Y18904D01*
G01X36590Y18995D01*
G01X36499Y19039D01*
G01X36364Y19084D01*
G01X36136Y19084D01*
G01X35999Y19039D01*
G01X35910Y18995D01*
G01X35818Y18904D01*
G01X35772Y18812D01*
G01X35772Y18630D01*
G01X35818Y18541D01*
G01X35910Y18449D01*
G01X35999Y18404D01*
G01X36136Y18358D01*
G01X36364Y18358D01*
G01X36499Y18404D01*
G01X36590Y18449D01*
G01X36682Y18541D01*
G01X36727Y18630D01*
G01X36727Y18812D01*
G01X39129Y23702D02*
G01X39221Y23794D01*
G01X39267Y23930D01*
G01X39267Y24113D01*
G01X39223Y24248D01*
G01X39131Y24340D01*
G01X39038Y24340D01*
G01X38948Y24293D01*
G01X38903Y24248D01*
G01X38858Y24156D01*
G01X38766Y23885D01*
G01X38721Y23794D01*
G01X38677Y23749D01*
G01X38583Y23702D01*
G01X38450Y23702D01*
G01X38359Y23794D01*
G01X38312Y23930D01*
G01X38312Y24113D01*
G01X38357Y24248D01*
G01X38448Y24340D01*
G01X39267Y23402D02*
G01X38312Y23402D01*
G01X39267Y23402D02*
G01X39267Y23086D01*
G01X39223Y22948D01*
G01X39131Y22860D01*
G01X39038Y22813D01*
G01X38905Y22766D01*
G01X38677Y22768D01*
G01X38538Y22813D01*
G01X38450Y22858D01*
G01X38357Y22948D01*
G01X38312Y23086D01*
G01X38312Y23402D01*
G01X37996Y22468D02*
G01X37996Y21649D01*
G01X39267Y21347D02*
G01X38312Y21347D01*
G01X39267Y21347D02*
G01X38312Y20984D01*
G01X39267Y20622D02*
G01X38312Y20984D01*
G01X39267Y20622D02*
G01X38312Y20622D01*
G01X39267Y20051D02*
G01X39223Y20139D01*
G01X39131Y20230D01*
G01X39039Y20275D01*
G01X38905Y20320D01*
G01X38677Y20322D01*
G01X38538Y20277D01*
G01X38448Y20230D01*
G01X38357Y20139D01*
G01X38312Y20051D01*
G01X38312Y19867D01*
G01X38359Y19774D01*
G01X38450Y19686D01*
G01X38538Y19641D01*
G01X38675Y19594D01*
G01X38905Y19594D01*
G01X39039Y19639D01*
G01X39129Y19686D01*
G01X39223Y19776D01*
G01X39267Y19867D01*
G01X39267Y20051D01*
G01X39131Y18657D02*
G01X39223Y18748D01*
G01X39267Y18887D01*
G01X39267Y19066D01*
G01X39223Y19205D01*
G01X39131Y19296D01*
G01X39039Y19294D01*
G01X38948Y19249D01*
G01X38905Y19203D01*
G01X38858Y19113D01*
G01X38768Y18840D01*
G01X38721Y18750D01*
G01X38675Y18704D01*
G01X38585Y18657D01*
G01X38450Y18659D01*
G01X38359Y18750D01*
G01X38312Y18887D01*
G01X38312Y19066D01*
G01X38359Y19203D01*
G01X38450Y19294D01*
G01X39267Y18359D02*
G01X38312Y18359D01*
G01X41415Y22432D02*
G01X41507Y22523D01*
G01X41553Y22660D01*
G01X41553Y22843D01*
G01X41509Y22978D01*
G01X41417Y23069D01*
G01X41324Y23069D01*
G01X41234Y23023D01*
G01X41189Y22978D01*
G01X41144Y22886D01*
G01X41052Y22615D01*
G01X41007Y22523D01*
G01X40963Y22479D01*
G01X40869Y22432D01*
G01X40736Y22432D01*
G01X40645Y22523D01*
G01X40598Y22660D01*
G01X40598Y22843D01*
G01X40643Y22978D01*
G01X40734Y23069D01*
G01X41553Y22132D02*
G01X40598Y22132D01*
G01X41553Y22132D02*
G01X41553Y21816D01*
G01X41509Y21678D01*
G01X41417Y21590D01*
G01X41324Y21543D01*
G01X41191Y21496D01*
G01X40963Y21498D01*
G01X40824Y21543D01*
G01X40736Y21588D01*
G01X40643Y21678D01*
G01X40598Y21816D01*
G01X40598Y22132D01*
G01X40282Y21198D02*
G01X40282Y20379D01*
G01X41325Y19397D02*
G01X41417Y19441D01*
G01X41509Y19533D01*
G01X41553Y19625D01*
G01X41553Y19804D01*
G01X41507Y19898D01*
G01X41417Y19987D01*
G01X41324Y20034D01*
G01X41191Y20077D01*
G01X40961Y20077D01*
G01X40824Y20034D01*
G01X40736Y19989D01*
G01X40645Y19898D01*
G01X40600Y19806D01*
G01X40598Y19625D01*
G01X40645Y19535D01*
G01X40736Y19443D01*
G01X40826Y19397D01*
G01X41415Y18459D02*
G01X41507Y18551D01*
G01X41553Y18687D01*
G01X41553Y18867D01*
G01X41509Y19005D01*
G01X41417Y19097D01*
G01X41324Y19097D01*
G01X41234Y19050D01*
G01X41191Y19007D01*
G01X41144Y18913D01*
G01X41052Y18642D01*
G01X41007Y18551D01*
G01X40963Y18506D01*
G01X40869Y18459D01*
G01X40736Y18459D01*
G01X40645Y18551D01*
G01X40598Y18687D01*
G01X40600Y18869D01*
G01X40645Y19007D01*
G01X40734Y19097D01*
G01X42999Y16991D02*
G01X43090Y17037D01*
G01X43225Y17174D01*
G01X43225Y16219D01*
G01X44071Y17174D02*
G01X43616Y17174D01*
G01X43570Y16765D01*
G01X43616Y16811D01*
G01X43753Y16854D01*
G01X43890Y16854D01*
G01X44025Y16811D01*
G01X44116Y16719D01*
G01X44162Y16582D01*
G01X44162Y16491D01*
G01X44116Y16356D01*
G01X44025Y16265D01*
G01X43890Y16219D01*
G01X43753Y16219D01*
G01X43616Y16265D01*
G01X43570Y16311D01*
G01X43527Y16402D01*
G54D25*
G01X30738Y17045D02*
G01X30830Y17090D01*
G01X30964Y17227D01*
G01X30964Y16272D01*
G01X31493Y17227D02*
G01X31355Y17182D01*
G01X31310Y17090D01*
G01X31310Y16999D01*
G01X31355Y16907D01*
G01X31447Y16864D01*
G01X31630Y16819D01*
G01X31764Y16773D01*
G01X31856Y16681D01*
G01X31901Y16590D01*
G01X31901Y16455D01*
G01X31856Y16364D01*
G01X31810Y16318D01*
G01X31675Y16272D01*
G01X31493Y16272D01*
G01X31355Y16318D01*
G01X31310Y16364D01*
G01X31266Y16455D01*
G01X31266Y16590D01*
G01X31310Y16681D01*
G01X31401Y16773D01*
G01X31538Y16819D01*
G01X31721Y16864D01*
G01X31810Y16907D01*
G01X31856Y16999D01*
G01X31856Y17090D01*
G01X31810Y17182D01*
G01X31675Y17227D01*
G01X31493Y17227D01*
G54D24*
G01X17992Y98071D02*
G01X18084Y98116D01*
G01X18219Y98254D01*
G01X18219Y97298D01*
G01X18975Y98254D02*
G01X18521Y97616D01*
G01X19201Y97616D01*
G01X18975Y98254D02*
G01X18975Y97298D01*
G54D23*
G01X31242Y119819D02*
G01X31242Y119042D01*
G01X31292Y118884D01*
G01X31396Y118780D01*
G01X31554Y118729D01*
G01X31658Y118729D01*
G01X31813Y118780D01*
G01X31917Y118884D01*
G01X31968Y119042D01*
G01X31968Y119819D01*
G01X32415Y119819D02*
G01X32986Y119819D01*
G01X32677Y119405D01*
G01X32832Y119405D01*
G01X32936Y119352D01*
G01X32986Y119301D01*
G01X33040Y119146D01*
G01X33040Y119042D01*
G01X32986Y118884D01*
G01X32882Y118780D01*
G01X32727Y118729D01*
G01X32572Y118729D01*
G01X32415Y118780D01*
G01X32364Y118834D01*
G01X32311Y118938D01*
G54D24*
G01X38100Y118475D02*
G01X39763Y118475D01*
G01X23690Y118475D02*
G01X23690Y116814D01*
G01X22860Y117645D02*
G01X24523Y117645D01*
G01X26692Y110579D02*
G01X26507Y110764D01*
G01X26230Y110855D01*
G01X25862Y110855D01*
G01X25585Y110764D01*
G01X25400Y110579D01*
G01X25400Y110396D01*
G01X25491Y110210D01*
G01X25585Y110116D01*
G01X25768Y110025D01*
G01X26324Y109839D01*
G01X26507Y109748D01*
G01X26601Y109657D01*
G01X26692Y109471D01*
G01X26692Y109194D01*
G01X26507Y109009D01*
G01X26230Y108917D01*
G01X25862Y108917D01*
G01X25585Y109009D01*
G01X25400Y109194D01*
G01X27302Y110855D02*
G01X27302Y108917D01*
G01X27302Y110855D02*
G01X28133Y110855D01*
G01X28409Y110764D01*
G01X28503Y110673D01*
G01X28595Y110487D01*
G01X28595Y110302D01*
G01X28503Y110116D01*
G01X28409Y110025D01*
G01X28133Y109933D01*
G01X27302Y109933D02*
G01X28133Y109933D01*
G01X28409Y109839D01*
G01X28503Y109748D01*
G01X28595Y109563D01*
G01X28595Y109286D01*
G01X28503Y109100D01*
G01X28409Y109009D01*
G01X28133Y108917D01*
G01X27302Y108917D01*
G01X29204Y110855D02*
G01X29204Y108917D01*
G01X29204Y110855D02*
G01X29944Y108917D01*
G01X30683Y110855D02*
G01X29944Y108917D01*
G01X30683Y110855D02*
G01X30683Y108917D01*
G01X31292Y109748D02*
G01X32956Y109748D01*
G01X33657Y110396D02*
G01X33657Y110487D01*
G01X33748Y110673D01*
G01X33842Y110764D01*
G01X34025Y110855D01*
G01X34396Y110855D01*
G01X34582Y110764D01*
G01X34673Y110673D01*
G01X34764Y110487D01*
G01X34764Y110302D01*
G01X34673Y110116D01*
G01X34488Y109839D01*
G01X33566Y108917D01*
G01X34858Y108917D01*
G01X36022Y110855D02*
G01X35745Y110764D01*
G01X35560Y110487D01*
G01X35468Y110025D01*
G01X35468Y109748D01*
G01X35560Y109286D01*
G01X35745Y109009D01*
G01X36022Y108917D01*
G01X36207Y108917D01*
G01X36484Y109009D01*
G01X36667Y109286D01*
G01X36761Y109748D01*
G01X36761Y110025D01*
G01X36667Y110487D01*
G01X36484Y110764D01*
G01X36207Y110855D01*
G01X36022Y110855D01*
G54D23*
G01X6504Y109839D02*
G01X7594Y109839D01*
G01X6504Y109839D02*
G01X6504Y110307D01*
G01X6555Y110462D01*
G01X6606Y110515D01*
G01X6710Y110566D01*
G01X6814Y110566D01*
G01X6918Y110515D01*
G01X6972Y110462D01*
G01X7023Y110307D01*
G01X7023Y109839D01*
G01X7023Y110203D02*
G01X7594Y110566D01*
G01X6710Y110909D02*
G01X6659Y111013D01*
G01X6504Y111170D01*
G01X7594Y111170D01*
G01X10314Y109839D02*
G01X11404Y109839D01*
G01X10314Y109839D02*
G01X10314Y110307D01*
G01X10365Y110462D01*
G01X10416Y110515D01*
G01X10520Y110566D01*
G01X10624Y110566D01*
G01X10728Y110515D01*
G01X10782Y110462D01*
G01X10833Y110307D01*
G01X10833Y109839D01*
G01X10833Y110203D02*
G01X11404Y110566D01*
G01X10574Y110962D02*
G01X10520Y110962D01*
G01X10416Y111013D01*
G01X10365Y111066D01*
G01X10314Y111170D01*
G01X10314Y111376D01*
G01X10365Y111480D01*
G01X10416Y111534D01*
G01X10520Y111584D01*
G01X10624Y111584D01*
G01X10728Y111534D01*
G01X10886Y111430D01*
G01X11404Y110909D01*
G01X11404Y111638D01*
G01X60606Y33893D02*
G01X61696Y33893D01*
G01X60606Y33893D02*
G01X60606Y34361D01*
G01X60657Y34516D01*
G01X60708Y34569D01*
G01X60812Y34620D01*
G01X60916Y34620D01*
G01X61020Y34569D01*
G01X61074Y34516D01*
G01X61125Y34361D01*
G01X61125Y33893D01*
G01X61125Y34257D02*
G01X61696Y34620D01*
G01X60606Y35067D02*
G01X60606Y35638D01*
G01X61020Y35329D01*
G01X61020Y35484D01*
G01X61074Y35588D01*
G01X61125Y35638D01*
G01X61280Y35692D01*
G01X61384Y35692D01*
G01X61541Y35638D01*
G01X61645Y35534D01*
G01X61696Y35379D01*
G01X61696Y35224D01*
G01X61645Y35067D01*
G01X61592Y35016D01*
G01X61488Y34963D01*
G01X57304Y33893D02*
G01X58394Y33893D01*
G01X57304Y33893D02*
G01X57304Y34361D01*
G01X57355Y34516D01*
G01X57406Y34569D01*
G01X57510Y34620D01*
G01X57614Y34620D01*
G01X57718Y34569D01*
G01X57772Y34516D01*
G01X57823Y34361D01*
G01X57823Y33893D01*
G01X57823Y34257D02*
G01X58394Y34620D01*
G01X57304Y35484D02*
G01X58031Y34963D01*
G01X58031Y35743D01*
G01X57304Y35484D02*
G01X58394Y35484D01*
G01X19601Y114732D02*
G01X19547Y114836D01*
G01X19443Y114940D01*
G01X19342Y114991D01*
G01X19133Y114991D01*
G01X19029Y114940D01*
G01X18925Y114836D01*
G01X18872Y114732D01*
G01X18821Y114577D01*
G01X18821Y114318D01*
G01X18872Y114160D01*
G01X18925Y114056D01*
G01X19029Y113952D01*
G01X19133Y113901D01*
G01X19342Y113901D01*
G01X19443Y113952D01*
G01X19547Y114056D01*
G01X19601Y114160D01*
G01X19944Y114785D02*
G01X20048Y114836D01*
G01X20203Y114991D01*
G01X20203Y113901D01*
G01X6350Y103335D02*
G01X6350Y102245D01*
G01X6350Y103335D02*
G01X6817Y103335D01*
G01X6972Y103284D01*
G01X7025Y103233D01*
G01X7076Y103129D01*
G01X7076Y103025D01*
G01X7025Y102921D01*
G01X6972Y102867D01*
G01X6817Y102816D01*
G01X6350Y102816D01*
G01X6713Y102816D02*
G01X7076Y102245D01*
G01X8044Y103335D02*
G01X7523Y103335D01*
G01X7472Y102867D01*
G01X7523Y102921D01*
G01X7680Y102971D01*
G01X7835Y102971D01*
G01X7990Y102921D01*
G01X8094Y102816D01*
G01X8148Y102661D01*
G01X8148Y102557D01*
G01X8094Y102400D01*
G01X7990Y102296D01*
G01X7835Y102245D01*
G01X7680Y102245D01*
G01X7523Y102296D01*
G01X7472Y102349D01*
G01X7419Y102453D01*
G01X6350Y99525D02*
G01X6350Y98435D01*
G01X6350Y99525D02*
G01X6817Y99525D01*
G01X6972Y99474D01*
G01X7025Y99423D01*
G01X7076Y99319D01*
G01X7076Y99215D01*
G01X7025Y99111D01*
G01X6972Y99057D01*
G01X6817Y99006D01*
G01X6350Y99006D01*
G01X6713Y99006D02*
G01X7076Y98435D01*
G01X8044Y99370D02*
G01X7990Y99474D01*
G01X7835Y99525D01*
G01X7731Y99525D01*
G01X7576Y99474D01*
G01X7472Y99319D01*
G01X7419Y99057D01*
G01X7419Y98798D01*
G01X7472Y98590D01*
G01X7576Y98486D01*
G01X7731Y98435D01*
G01X7785Y98435D01*
G01X7940Y98486D01*
G01X8044Y98590D01*
G01X8094Y98747D01*
G01X8094Y98798D01*
G01X8044Y98953D01*
G01X7940Y99057D01*
G01X7785Y99111D01*
G01X7731Y99111D01*
G01X7576Y99057D01*
G01X7472Y98953D01*
G01X7419Y98798D01*
G01X17378Y106596D02*
G01X17429Y106492D01*
G01X17533Y106388D01*
G01X17637Y106334D01*
G01X17792Y106283D01*
G01X18054Y106283D01*
G01X18209Y106334D01*
G01X18313Y106388D01*
G01X18417Y106492D01*
G01X18468Y106596D01*
G01X18468Y106804D01*
G01X18417Y106906D01*
G01X18313Y107010D01*
G01X18209Y107063D01*
G01X18054Y107114D01*
G01X17792Y107114D01*
G01X17637Y107063D01*
G01X17533Y107010D01*
G01X17429Y106906D01*
G01X17378Y106804D01*
G01X17378Y106596D01*
G01X18260Y106751D02*
G01X18572Y107063D01*
G01X17586Y107457D02*
G01X17533Y107561D01*
G01X17378Y107719D01*
G01X18468Y107719D01*
G01X6350Y95715D02*
G01X6350Y94625D01*
G01X6350Y95715D02*
G01X6817Y95715D01*
G01X6972Y95664D01*
G01X7025Y95613D01*
G01X7076Y95509D01*
G01X7076Y95405D01*
G01X7025Y95301D01*
G01X6972Y95247D01*
G01X6817Y95196D01*
G01X6350Y95196D01*
G01X6713Y95196D02*
G01X7076Y94625D01*
G01X8148Y95715D02*
G01X7627Y94625D01*
G01X7419Y95715D02*
G01X8148Y95715D01*
G01X64516Y115798D02*
G01X64516Y114706D01*
G01X64516Y115798D02*
G01X64983Y115798D01*
G01X65138Y115744D01*
G01X65191Y115694D01*
G01X65242Y115590D01*
G01X65242Y115485D01*
G01X65191Y115381D01*
G01X65138Y115330D01*
G01X64983Y115277D01*
G01X64516Y115277D02*
G01X64983Y115277D01*
G01X65138Y115226D01*
G01X65191Y115173D01*
G01X65242Y115069D01*
G01X65242Y114914D01*
G01X65191Y114810D01*
G01X65138Y114759D01*
G01X64983Y114706D01*
G01X64516Y114706D01*
G01X65585Y115798D02*
G01X65585Y115018D01*
G01X65638Y114861D01*
G01X65742Y114759D01*
G01X65897Y114706D01*
G01X66001Y114706D01*
G01X66156Y114759D01*
G01X66260Y114861D01*
G01X66314Y115018D01*
G01X66314Y115798D01*
G01X67383Y115798D02*
G01X66657Y114706D01*
G01X66657Y115798D02*
G01X67383Y115798D01*
G01X66657Y114706D02*
G01X67383Y114706D01*
G01X67726Y115590D02*
G01X67830Y115640D01*
G01X67985Y115798D01*
G01X67985Y114706D01*
G01X67564Y100370D02*
G01X67564Y99281D01*
G01X67564Y100370D02*
G01X67927Y100370D01*
G01X68084Y100320D01*
G01X68186Y100215D01*
G01X68239Y100111D01*
G01X68290Y99956D01*
G01X68290Y99697D01*
G01X68239Y99540D01*
G01X68186Y99436D01*
G01X68084Y99332D01*
G01X67927Y99281D01*
G01X67564Y99281D01*
G01X68633Y100165D02*
G01X68737Y100215D01*
G01X68894Y100370D01*
G01X68894Y99281D01*
G01X64823Y92821D02*
G01X65913Y92821D01*
G01X64823Y92821D02*
G01X64823Y93289D01*
G01X64874Y93444D01*
G01X64924Y93497D01*
G01X65029Y93548D01*
G01X65133Y93548D01*
G01X65237Y93497D01*
G01X65290Y93444D01*
G01X65341Y93289D01*
G01X65341Y92821D01*
G01X65341Y93185D02*
G01X65913Y93548D01*
G01X64823Y94152D02*
G01X64874Y93995D01*
G01X64978Y93944D01*
G01X65082Y93944D01*
G01X65186Y93995D01*
G01X65237Y94099D01*
G01X65290Y94307D01*
G01X65341Y94462D01*
G01X65445Y94566D01*
G01X65549Y94620D01*
G01X65704Y94620D01*
G01X65808Y94566D01*
G01X65862Y94516D01*
G01X65913Y94358D01*
G01X65913Y94152D01*
G01X65862Y93995D01*
G01X65808Y93944D01*
G01X65704Y93891D01*
G01X65549Y93891D01*
G01X65445Y93944D01*
G01X65341Y94048D01*
G01X65290Y94203D01*
G01X65237Y94412D01*
G01X65186Y94516D01*
G01X65082Y94566D01*
G01X64978Y94566D01*
G01X64874Y94516D01*
G01X64823Y94358D01*
G01X64823Y94152D01*
G01X68580Y45875D02*
G01X68580Y45095D01*
G01X68630Y44940D01*
G01X68734Y44836D01*
G01X68892Y44782D01*
G01X68996Y44782D01*
G01X69151Y44836D01*
G01X69255Y44940D01*
G01X69306Y45095D01*
G01X69306Y45875D01*
G01X70274Y45875D02*
G01X69753Y45875D01*
G01X69702Y45407D01*
G01X69753Y45458D01*
G01X69910Y45511D01*
G01X70065Y45511D01*
G01X70220Y45458D01*
G01X70324Y45354D01*
G01X70378Y45199D01*
G01X70378Y45095D01*
G01X70324Y44940D01*
G01X70220Y44836D01*
G01X70065Y44782D01*
G01X69910Y44782D01*
G01X69753Y44836D01*
G01X69702Y44887D01*
G01X69649Y44991D01*
G01X66908Y109136D02*
G01X66959Y109032D01*
G01X67063Y108928D01*
G01X67167Y108874D01*
G01X67322Y108823D01*
G01X67584Y108823D01*
G01X67739Y108874D01*
G01X67843Y108928D01*
G01X67947Y109032D01*
G01X67998Y109136D01*
G01X67998Y109344D01*
G01X67947Y109446D01*
G01X67843Y109550D01*
G01X67739Y109603D01*
G01X67584Y109654D01*
G01X67322Y109654D01*
G01X67167Y109603D01*
G01X67063Y109550D01*
G01X66959Y109446D01*
G01X66908Y109344D01*
G01X66908Y109136D01*
G01X67790Y109291D02*
G01X68102Y109603D01*
G01X67167Y110050D02*
G01X67116Y110050D01*
G01X67012Y110101D01*
G01X66959Y110154D01*
G01X66908Y110259D01*
G01X66908Y110464D01*
G01X66959Y110568D01*
G01X67012Y110622D01*
G01X67116Y110673D01*
G01X67218Y110673D01*
G01X67322Y110622D01*
G01X67480Y110518D01*
G01X67998Y109997D01*
G01X67998Y110726D01*
G01X72517Y88536D02*
G01X73606Y88536D01*
G01X72517Y88536D02*
G01X72517Y89004D01*
G01X72567Y89159D01*
G01X72618Y89212D01*
G01X72722Y89263D01*
G01X72826Y89263D01*
G01X72931Y89212D01*
G01X72984Y89159D01*
G01X73035Y89004D01*
G01X73035Y88536D01*
G01X73035Y88900D02*
G01X73606Y89263D01*
G01X72880Y90281D02*
G01X73035Y90231D01*
G01X73139Y90127D01*
G01X73190Y89972D01*
G01X73190Y89918D01*
G01X73139Y89763D01*
G01X73035Y89659D01*
G01X72880Y89606D01*
G01X72826Y89606D01*
G01X72671Y89659D01*
G01X72567Y89763D01*
G01X72517Y89918D01*
G01X72517Y89972D01*
G01X72567Y90127D01*
G01X72671Y90231D01*
G01X72880Y90281D01*
G01X73139Y90281D01*
G01X73398Y90231D01*
G01X73555Y90127D01*
G01X73606Y89972D01*
G01X73606Y89867D01*
G01X73555Y89710D01*
G01X73451Y89659D01*
G54D24*
G01X43180Y9416D02*
G01X43180Y7477D01*
G01X43180Y9416D02*
G01X43827Y9416D01*
G01X44104Y9324D01*
G01X44287Y9139D01*
G01X44381Y8956D01*
G01X44472Y8676D01*
G01X44472Y8217D01*
G01X44381Y7940D01*
G01X44287Y7754D01*
G01X44104Y7569D01*
G01X43827Y7477D01*
G01X43180Y7477D01*
G01X45082Y8217D02*
G01X46189Y8217D01*
G01X46189Y8400D01*
G01X46098Y8585D01*
G01X46007Y8676D01*
G01X45821Y8770D01*
G01X45544Y8770D01*
G01X45359Y8676D01*
G01X45173Y8493D01*
G01X45082Y8217D01*
G01X45082Y8031D01*
G01X45173Y7754D01*
G01X45359Y7569D01*
G01X45544Y7477D01*
G01X45821Y7477D01*
G01X46007Y7569D01*
G01X46189Y7754D01*
G01X47815Y8493D02*
G01X47724Y8676D01*
G01X47447Y8770D01*
G01X47170Y8770D01*
G01X46893Y8676D01*
G01X46799Y8493D01*
G01X46893Y8308D01*
G01X47078Y8217D01*
G01X47538Y8123D01*
G01X47724Y8031D01*
G01X47815Y7846D01*
G01X47815Y7754D01*
G01X47724Y7569D01*
G01X47447Y7477D01*
G01X47170Y7477D01*
G01X46893Y7569D01*
G01X46799Y7754D01*
G01X48425Y9416D02*
G01X48519Y9324D01*
G01X48610Y9416D01*
G01X48519Y9509D01*
G01X48425Y9416D01*
G01X48519Y8770D02*
G01X48519Y7477D01*
G01X50330Y8770D02*
G01X50330Y7292D01*
G01X50236Y7015D01*
G01X50144Y6924D01*
G01X49959Y6830D01*
G01X49682Y6830D01*
G01X49496Y6924D01*
G01X50330Y8493D02*
G01X50144Y8676D01*
G01X49959Y8770D01*
G01X49682Y8770D01*
G01X49496Y8676D01*
G01X49314Y8493D01*
G01X49220Y8217D01*
G01X49220Y8031D01*
G01X49314Y7754D01*
G01X49496Y7569D01*
G01X49682Y7477D01*
G01X49959Y7477D01*
G01X50144Y7569D01*
G01X50330Y7754D01*
G01X50939Y8770D02*
G01X50939Y7477D01*
G01X50939Y8400D02*
G01X51216Y8676D01*
G01X51399Y8770D01*
G01X51676Y8770D01*
G01X51861Y8676D01*
G01X51955Y8400D01*
G01X51955Y7477D01*
G01X52565Y8217D02*
G01X53672Y8217D01*
G01X53672Y8400D01*
G01X53581Y8585D01*
G01X53487Y8676D01*
G01X53301Y8770D01*
G01X53025Y8770D01*
G01X52842Y8676D01*
G01X52656Y8493D01*
G01X52565Y8217D01*
G01X52565Y8031D01*
G01X52656Y7754D01*
G01X52842Y7569D01*
G01X53025Y7477D01*
G01X53301Y7477D01*
G01X53487Y7569D01*
G01X53672Y7754D01*
G01X55389Y9416D02*
G01X55389Y7477D01*
G01X55389Y8493D02*
G01X55206Y8676D01*
G01X55021Y8770D01*
G01X54744Y8770D01*
G01X54559Y8676D01*
G01X54373Y8493D01*
G01X54282Y8217D01*
G01X54282Y8031D01*
G01X54373Y7754D01*
G01X54559Y7569D01*
G01X54744Y7477D01*
G01X55021Y7477D01*
G01X55206Y7569D01*
G01X55389Y7754D01*
G01X57421Y9416D02*
G01X57421Y7477D01*
G01X57421Y8493D02*
G01X57607Y8676D01*
G01X57792Y8770D01*
G01X58069Y8770D01*
G01X58254Y8676D01*
G01X58437Y8493D01*
G01X58531Y8217D01*
G01X58531Y8031D01*
G01X58437Y7754D01*
G01X58254Y7569D01*
G01X58069Y7477D01*
G01X57792Y7477D01*
G01X57607Y7569D01*
G01X57421Y7754D01*
G01X59232Y8770D02*
G01X59786Y7477D01*
G01X60340Y8770D02*
G01X59786Y7477D01*
G01X59601Y7107D01*
G01X59418Y6924D01*
G01X59232Y6830D01*
G01X59141Y6830D01*
G01X62372Y9416D02*
G01X62372Y7477D01*
G01X62372Y9416D02*
G01X63205Y9416D01*
G01X63482Y9324D01*
G01X63573Y9233D01*
G01X63665Y9047D01*
G01X63665Y8770D01*
G01X63573Y8585D01*
G01X63482Y8493D01*
G01X63205Y8400D01*
G01X62372Y8400D01*
G01X64274Y8770D02*
G01X64274Y7477D01*
G01X64274Y8217D02*
G01X64368Y8493D01*
G01X64554Y8676D01*
G01X64736Y8770D01*
G01X65013Y8770D01*
G01X66733Y8770D02*
G01X66733Y7477D01*
G01X66733Y8493D02*
G01X66548Y8676D01*
G01X66362Y8770D01*
G01X66085Y8770D01*
G01X65900Y8676D01*
G01X65717Y8493D01*
G01X65623Y8217D01*
G01X65623Y8031D01*
G01X65717Y7754D01*
G01X65900Y7569D01*
G01X66085Y7477D01*
G01X66362Y7477D01*
G01X66548Y7569D01*
G01X66733Y7754D01*
G01X67343Y9416D02*
G01X67343Y7477D01*
G01X67343Y8493D02*
G01X67525Y8676D01*
G01X67711Y8770D01*
G01X67988Y8770D01*
G01X68173Y8676D01*
G01X68359Y8493D01*
G01X68450Y8217D01*
G01X68450Y8031D01*
G01X68359Y7754D01*
G01X68173Y7569D01*
G01X67988Y7477D01*
G01X67711Y7477D01*
G01X67525Y7569D01*
G01X67343Y7754D01*
G01X69060Y9416D02*
G01X69060Y7477D01*
G01X69060Y8400D02*
G01X69336Y8676D01*
G01X69522Y8770D01*
G01X69799Y8770D01*
G01X69984Y8676D01*
G01X70076Y8400D01*
G01X70076Y7477D01*
G01X71793Y8770D02*
G01X71793Y7477D01*
G01X71793Y8493D02*
G01X71610Y8676D01*
G01X71424Y8770D01*
G01X71147Y8770D01*
G01X70962Y8676D01*
G01X70777Y8493D01*
G01X70685Y8217D01*
G01X70685Y8031D01*
G01X70777Y7754D01*
G01X70962Y7569D01*
G01X71147Y7477D01*
G01X71424Y7477D01*
G01X71610Y7569D01*
G01X71793Y7754D01*
G01X72682Y9416D02*
G01X72682Y7846D01*
G01X72773Y7569D01*
G01X72958Y7477D01*
G01X73141Y7477D01*
G01X72402Y8770D02*
G01X73050Y8770D01*
G01X5194Y8956D02*
G01X5102Y9139D01*
G01X4917Y9324D01*
G01X4734Y9416D01*
G01X4363Y9416D01*
G01X4178Y9324D01*
G01X3995Y9139D01*
G01X3901Y8956D01*
G01X3810Y8676D01*
G01X3810Y8217D01*
G01X3901Y7940D01*
G01X3995Y7754D01*
G01X4178Y7569D01*
G01X4363Y7477D01*
G01X4734Y7477D01*
G01X4917Y7569D01*
G01X5102Y7754D01*
G01X5194Y7940D01*
G01X5194Y8217D01*
G01X4734Y8217D02*
G01X5194Y8217D01*
G01X5803Y8217D02*
G01X6913Y8217D01*
G01X6913Y8400D01*
G01X6819Y8585D01*
G01X6728Y8676D01*
G01X6543Y8770D01*
G01X6266Y8770D01*
G01X6083Y8676D01*
G01X5897Y8493D01*
G01X5803Y8217D01*
G01X5803Y8031D01*
G01X5897Y7754D01*
G01X6083Y7569D01*
G01X6266Y7477D01*
G01X6543Y7477D01*
G01X6728Y7569D01*
G01X6913Y7754D01*
G01X7523Y9416D02*
G01X7614Y9324D01*
G01X7708Y9416D01*
G01X7614Y9509D01*
G01X7523Y9416D01*
G01X7614Y8770D02*
G01X7614Y7477D01*
G01X9425Y8770D02*
G01X9425Y7292D01*
G01X9334Y7015D01*
G01X9240Y6924D01*
G01X9055Y6830D01*
G01X8778Y6830D01*
G01X8595Y6924D01*
G01X9425Y8493D02*
G01X9240Y8676D01*
G01X9055Y8770D01*
G01X8778Y8770D01*
G01X8595Y8676D01*
G01X8409Y8493D01*
G01X8318Y8217D01*
G01X8318Y8031D01*
G01X8409Y7754D01*
G01X8595Y7569D01*
G01X8778Y7477D01*
G01X9055Y7477D01*
G01X9240Y7569D01*
G01X9425Y7754D01*
G01X10035Y8217D02*
G01X11142Y8217D01*
G01X11142Y8400D01*
G01X11051Y8585D01*
G01X10960Y8676D01*
G01X10774Y8770D01*
G01X10497Y8770D01*
G01X10312Y8676D01*
G01X10126Y8493D01*
G01X10035Y8217D01*
G01X10035Y8031D01*
G01X10126Y7754D01*
G01X10312Y7569D01*
G01X10497Y7477D01*
G01X10774Y7477D01*
G01X10960Y7569D01*
G01X11142Y7754D01*
G01X11752Y8770D02*
G01X11752Y7477D01*
G01X11752Y8217D02*
G01X11846Y8493D01*
G01X12029Y8676D01*
G01X12214Y8770D01*
G01X12491Y8770D01*
G01X15910Y8956D02*
G01X15816Y9139D01*
G01X15633Y9324D01*
G01X15448Y9416D01*
G01X15077Y9416D01*
G01X14894Y9324D01*
G01X14709Y9139D01*
G01X14617Y8956D01*
G01X14523Y8676D01*
G01X14523Y8217D01*
G01X14617Y7940D01*
G01X14709Y7754D01*
G01X14894Y7569D01*
G01X15077Y7477D01*
G01X15448Y7477D01*
G01X15633Y7569D01*
G01X15816Y7754D01*
G01X15910Y7940D01*
G01X16979Y8770D02*
G01X16797Y8676D01*
G01X16611Y8493D01*
G01X16520Y8217D01*
G01X16520Y8031D01*
G01X16611Y7754D01*
G01X16797Y7569D01*
G01X16979Y7477D01*
G01X17259Y7477D01*
G01X17442Y7569D01*
G01X17627Y7754D01*
G01X17719Y8031D01*
G01X17719Y8217D01*
G01X17627Y8493D01*
G01X17442Y8676D01*
G01X17259Y8770D01*
G01X16979Y8770D01*
G01X18328Y8770D02*
G01X18328Y7846D01*
G01X18422Y7569D01*
G01X18605Y7477D01*
G01X18884Y7477D01*
G01X19067Y7569D01*
G01X19344Y7846D01*
G01X19344Y8770D02*
G01X19344Y7477D01*
G01X19954Y8770D02*
G01X19954Y7477D01*
G01X19954Y8400D02*
G01X20231Y8676D01*
G01X20416Y8770D01*
G01X20693Y8770D01*
G01X20878Y8676D01*
G01X20970Y8400D01*
G01X20970Y7477D01*
G01X21856Y9416D02*
G01X21856Y7846D01*
G01X21950Y7569D01*
G01X22136Y7477D01*
G01X22318Y7477D01*
G01X21579Y8770D02*
G01X22227Y8770D01*
G01X22928Y8217D02*
G01X24038Y8217D01*
G01X24038Y8400D01*
G01X23944Y8585D01*
G01X23853Y8676D01*
G01X23667Y8770D01*
G01X23390Y8770D01*
G01X23205Y8676D01*
G01X23022Y8493D01*
G01X22928Y8217D01*
G01X22928Y8031D01*
G01X23022Y7754D01*
G01X23205Y7569D01*
G01X23390Y7477D01*
G01X23667Y7477D01*
G01X23853Y7569D01*
G01X24038Y7754D01*
G01X24648Y8770D02*
G01X24648Y7477D01*
G01X24648Y8217D02*
G01X24739Y8493D01*
G01X24925Y8676D01*
G01X25107Y8770D01*
G01X25387Y8770D01*
G01X27419Y8770D02*
G01X27973Y7477D01*
G01X28526Y8770D02*
G01X27973Y7477D01*
G01X29136Y9047D02*
G01X29321Y9139D01*
G01X29598Y9416D01*
G01X29598Y7477D01*
G01X30299Y7940D02*
G01X30208Y7846D01*
G01X30299Y7754D01*
G01X30391Y7846D01*
G01X30299Y7940D01*
G01X31556Y9416D02*
G01X31280Y9324D01*
G01X31094Y9047D01*
G01X31000Y8585D01*
G01X31000Y8308D01*
G01X31094Y7846D01*
G01X31280Y7569D01*
G01X31556Y7477D01*
G01X31739Y7477D01*
G01X32016Y7569D01*
G01X32202Y7846D01*
G01X32296Y8308D01*
G01X32296Y8585D01*
G01X32202Y9047D01*
G01X32016Y9324D01*
G01X31739Y9416D01*
G01X31556Y9416D01*
G54D10*
G75*
G01X23444Y104402D02*
G03X19482Y104402I-1981J1498D01*
G01*
G75*
G01X72974Y106942D02*
G03X69012Y106942I-1981J1498D01*
G01*
G75*
G01X68811Y102220D02*
G03X68811Y102220I-1501J0D01*
G01*
G75*
G01X69060Y102220D02*
G03X69060Y102220I-1750J0D01*
G01*

%LPD*%
G36*
G01X66809Y100720D02*
G01X66809Y103819D01*
G01X65909Y103320D01*
G01X65710Y102320D01*
G01X65809Y101620D01*
G01X66809Y100720D01*
G37*
M00*
M02*
